<svg xmlns="http://www.w3.org/2000/svg" viewBox="0 0 1024 1024" width="1024" height="1024"><rect id="bg" width="1024" height="1024" fill="#F7F5F0"/><g transform="translate(102.400 410.405) scale(2.684142)">
  <title>Sitelab</title>
    <path fill="#141311" transform="translate(-2.5000 74.4000) scale(0.100000 -0.100000)" d="M25 150H141Q142 117 165.0 98.5Q188 80 230.0 80.0Q272 80 295.0 96.0Q318 112 318 139Q318 179 261 192L172 213Q104 228 72.0 261.5Q40 295 40 354Q40 426 94.5 467.5Q149 509 236 509Q319 509 370.5 465.0Q422 421 423 349H307Q306 381 286.0 399.5Q266 418 231 418Q195 418 175.0 402.5Q155 387 155 359Q155 318 219 303L308 282Q372 267 402.5 236.0Q433 205 433 149Q433 75 376.0 31.0Q319 -13 226 -13Q134 -13 79.5 32.0Q25 77 25 150Z"/>
    <path fill="#141311" transform="translate(41.3000 74.4000) scale(0.100000 -0.100000)" d="M124 593Q93 593 71.0 614.5Q49 636 49.0 667.0Q49 698 70.5 719.0Q92 740 124 740Q154 740 175.5 719.0Q197 698 197.0 667.0Q197 636 175.5 614.5Q154 593 124 593ZM63 0V494H185V0Z"/>
    <path fill="#141311" transform="translate(63.6000 74.4000) scale(0.100000 -0.100000)" d="M231 0H109V392H14V494H109V648H231V494H327V392H231Z"/>
    <path fill="#141311" transform="translate(95.1000 74.4000) scale(0.100000 -0.100000)" d="M284 -13Q174 -13 104.0 59.5Q34 132 34 247Q34 363 102.5 436.0Q171 509 280 509Q391 509 456.5 440.5Q522 372 522 256V219L150 218Q164 87 286 87Q389 87 411 160H524Q508 79 444.5 33.0Q381 -13 284 -13ZM281 409Q171 409 153 296H401Q401 347 368.5 378.0Q336 409 281 409Z"/>
    <path fill="#141311" transform="translate(148.3000 74.4000) scale(0.100000 -0.100000)" d="M186 0H65V744H186Z"/>
    <path fill="#141311" transform="translate(170.9000 74.4000) scale(0.100000 -0.100000)" d="M210 -13Q132 -13 86.5 29.0Q41 71 41 141Q41 209 88.5 250.0Q136 291 224 298L372 309V320Q372 414 270 414Q216 414 187.0 392.5Q158 371 158 332H54Q54 412 114.5 460.5Q175 509 276.0 509.0Q377 509 434.0 455.0Q491 401 491 300V0H384L375 73Q359 35 313.5 11.0Q268 -13 210 -13ZM250 79Q307 79 340.0 111.0Q373 143 373 200V226L270 218Q165 208 165 146Q165 79 250 79Z"/>
    <path fill="#141311" transform="translate(223.2000 74.4000) scale(0.100000 -0.100000)" d="M176 0H63V744H185V422Q209 463 255.5 486.5Q302 510 358 510Q462 510 523.5 436.5Q585 363 585 244Q585 129 520.5 58.0Q456 -13 350 -13Q294 -13 250.0 11.0Q206 35 184 77ZM325 99Q389 99 425.5 140.5Q462 182 462.0 249.0Q462 316 425.0 358.0Q388 400 325.0 400.0Q262 400 224.0 358.0Q186 316 186.0 249.0Q186 182 224.0 140.5Q262 99 325 99Z"/>
    <path fill="#FF6A2C" transform="translate(282.6000 74.4000) scale(0.100000 -0.100000)" d="M64 67Q64 100 88.0 123.5Q112 147 145.0 147.0Q178 147 202.0 123.5Q226 100 226 67Q226 35 202.0 11.5Q178 -12 145.0 -12.0Q112 -12 88.0 11.5Q64 35 64 67Z"/>
</g></svg>