<svg xmlns="http://www.w3.org/2000/svg" viewBox="0 0 1024 1024" width="1024" height="1024">
  <rect width="1024" height="1024" rx="232" ry="232" fill="#141311"/>
  <g transform="translate(253.36 716.29) scale(0.82375 -0.82375)" fill="#F7F5F0">
    <path d="M25 150H141Q142 117 165.0 98.5Q188 80 230.0 80.0Q272 80 295.0 96.0Q318 112 318 139Q318 179 261 192L172 213Q104 228 72.0 261.5Q40 295 40 354Q40 426 94.5 467.5Q149 509 236 509Q319 509 370.5 465.0Q422 421 423 349H307Q306 381 286.0 399.5Q266 418 231 418Q195 418 175.0 402.5Q155 387 155 359Q155 318 219 303L308 282Q372 267 402.5 236.0Q433 205 433 149Q433 75 376.0 31.0Q319 -13 226 -13Q134 -13 79.5 32.0Q25 77 25 150Z"/>
  </g>
  <circle cx="694.05" cy="660.29" r="56.00" fill="#FF6A2C"/>
</svg>
